<?xml version="1.0" encoding="UTF-8" standalone="no"?>
<!-- Created with Inkscape (http://www.inkscape.org/) -->

<svg
   width="161.84389mm"
   height="45.068024mm"
   viewBox="0 0 161.84389 45.068023"
   version="1.1"
   id="svg7225"
   inkscape:version="1.2.2 (1:1.2.2+202212051552+b0a8486541)"
   sodipodi:docname="DR SVGs.svg"
   xmlns:inkscape="http://www.inkscape.org/namespaces/inkscape"
   xmlns:sodipodi="http://sodipodi.sourceforge.net/DTD/sodipodi-0.dtd"
   xmlns="http://www.w3.org/2000/svg"
   xmlns:svg="http://www.w3.org/2000/svg">
  <sodipodi:namedview
     id="namedview7227"
     pagecolor="#ffffff"
     bordercolor="#999999"
     borderopacity="1"
     inkscape:showpageshadow="0"
     inkscape:pageopacity="0"
     inkscape:pagecheckerboard="0"
     inkscape:deskcolor="#d1d1d1"
     inkscape:document-units="mm"
     showgrid="false"
     inkscape:zoom="0.48430627"
     inkscape:cx="287.00847"
     inkscape:cy="418.12385"
     inkscape:window-width="1360"
     inkscape:window-height="752"
     inkscape:window-x="0"
     inkscape:window-y="16"
     inkscape:window-maximized="1"
     inkscape:current-layer="layer1" />
  <defs
     id="defs7222" />
  <g
     inkscape:label="Capa 1"
     inkscape:groupmode="layer"
     id="layer1"
     transform="translate(168.92464,-499.06359)">
    <g
       id="g19028"
       transform="matrix(5.0097795,0,0,5.0097795,-726.14616,-170.32499)"
       style="fill:#000000;stroke:none;stroke-width:0.19961">
      <rect
         style="vector-effect:non-scaling-stroke;fill:#000000;fill-opacity:1;stroke:none;stroke-width:0.0105626;stroke-linecap:butt;stroke-linejoin:miter;stroke-dasharray:none;stroke-opacity:0.913725;-inkscape-stroke:hairline;paint-order:fill markers stroke;stop-color:#000000"
         id="rect18988"
         width="32.305588"
         height="8.9960127"
         x="111.22675"
         y="133.61638" />
      <g
         id="g19012"
         transform="matrix(1.9927678,0,0,1.9927678,5565.3133,-5364.105)"
         style="fill:#ffffff;fill-opacity:1;stroke:none;stroke-width:0.100167">
        <path
           d="m -2730.2723,2761.302 q 0,0.2631 -0.058,0.4139 -0.058,0.1476 -0.1669,0.2149 -0.1058,0.067 -0.263,0.087 -0.154,0.016 -0.3497,0.016 -0.093,0 -0.1958,0 -0.099,0 -0.1989,0 -0.096,0 -0.1764,0 -0.077,0 -0.1252,0 v -1.2705 q 0,-0.1027 0.026,-0.1508 0.029,-0.048 0.1444,-0.055 0.051,0 0.1347,0 0.083,0 0.1765,0 0.096,0 0.1861,0 0.09,0 0.1508,0 0.1764,0.01 0.308,0.029 0.1347,0.023 0.2246,0.096 0.093,0.074 0.1379,0.2246 0.045,0.1476 0.045,0.4042 z m -1.2865,0.5871 q 0.022,0 0.08,0 0.061,0 0.1315,0 0.071,0 0.1348,0 0.067,0 0.1027,0 0.1636,0 0.2759,-0.022 0.1123,-0.023 0.1796,-0.083 0.071,-0.064 0.1,-0.1797 0.032,-0.1187 0.032,-0.308 0,-0.2567 -0.055,-0.3882 -0.051,-0.1348 -0.1764,-0.1829 -0.1219,-0.048 -0.3433,-0.048 -0.045,0 -0.1283,0 -0.08,0 -0.1605,0 -0.08,0 -0.1251,0.01 -0.023,0.013 -0.035,0.035 -0.013,0.019 -0.013,0.08 z"
           id="path18990"
           style="font-size:48.9726px;line-height:1.25;font-family:Genos;-inkscape-font-specification:'Genos, Normal';text-align:center;text-anchor:middle;fill:#ffffff;fill-opacity:1;stroke:none;stroke-width:0.0265019" />
        <path
           d="m -2729.8143,2762.0289 h -0.1296 q -0.038,0 -0.059,-0.018 -0.018,-0.021 -0.018,-0.074 v -1.0257 q 0.065,-0.021 0.1769,-0.044 0.1149,-0.024 0.2829,-0.024 0.1591,0 0.2505,0.024 0.094,0.021 0.1356,0.059 0.044,0.038 0.056,0.094 0.015,0.053 0.015,0.1208 h -0.1974 v -0.041 q 0,-0.068 -0.044,-0.097 -0.041,-0.032 -0.097,-0.038 -0.056,-0.01 -0.112,-0.01 -0.086,0 -0.1533,0.015 -0.065,0.015 -0.1031,0.038 z"
           id="path18992"
           style="font-size:48.9726px;line-height:1.25;font-family:Genos;-inkscape-font-specification:'Genos, Normal';text-align:center;text-anchor:middle;fill:#ffffff;fill-opacity:1;stroke:none;stroke-width:0.0265019" />
        <path
           d="m -2728.4675,2762.0271 q -0.1219,0 -0.1861,-0.058 -0.064,-0.061 -0.1058,-0.1828 l -0.4171,-1.2352 h 0.2631 l 0.3561,1.1325 q 0.026,0.077 0.067,0.1059 0.042,0.029 0.087,0.029 h 0.048 l 0.4203,-1.2673 h 0.1893 l -0.5197,1.4758 z"
           id="path18994"
           style="font-size:48.9726px;line-height:1.25;font-family:Genos;-inkscape-font-specification:'Genos, Normal';text-align:center;text-anchor:middle;fill:#ffffff;fill-opacity:1;stroke:none;stroke-width:0.0265019" />
        <path
           d="m -2727.3852,2762.0407 q -0.1385,0 -0.1857,-0.074 -0.047,-0.074 -0.047,-0.2151 v -0.8989 h 0.2063 v 0.8871 q 0,0.1208 0.026,0.1621 0.026,0.041 0.094,0.041 0.024,0 0.059,-0.01 0.035,-0.01 0.044,-0.01 v 0.091 q -0.01,0 -0.035,0.01 -0.024,0 -0.065,0.01 -0.038,0.01 -0.097,0.01 z m -0.1267,-1.3587 q -0.05,0 -0.08,-0.015 -0.03,-0.015 -0.03,-0.062 0,-0.047 0.027,-0.062 0.029,-0.015 0.079,-0.015 0.056,0 0.083,0.015 0.026,0.015 0.024,0.062 0,0.047 -0.027,0.062 -0.026,0.015 -0.077,0.015 z"
           id="path18996"
           style="font-size:48.9726px;line-height:1.25;font-family:Genos;-inkscape-font-specification:'Genos, Normal';text-align:center;text-anchor:middle;fill:#ffffff;fill-opacity:1;stroke:none;stroke-width:0.0265019" />
        <path
           d="m -2726.8514,2762.0289 h -0.1297 q -0.038,0 -0.059,-0.018 -0.018,-0.021 -0.018,-0.074 v -1.0257 q 0.065,-0.021 0.1768,-0.044 0.1149,-0.024 0.2829,-0.024 0.1592,0 0.2506,0.024 0.094,0.021 0.1355,0.059 0.044,0.038 0.056,0.094 0.015,0.053 0.015,0.1208 h -0.1974 v -0.041 q 0,-0.068 -0.044,-0.097 -0.041,-0.032 -0.097,-0.038 -0.056,-0.01 -0.112,-0.01 -0.085,0 -0.1532,0.015 -0.065,0.015 -0.1032,0.038 z"
           id="path18998"
           style="font-size:48.9726px;line-height:1.25;font-family:Genos;-inkscape-font-specification:'Genos, Normal';text-align:center;text-anchor:middle;fill:#ffffff;fill-opacity:1;stroke:none;stroke-width:0.0265019" />
        <path
           d="m -2724.625,2760.853 v 0.7987 q 0,0.1473 0.082,0.2092 0.086,0.059 0.2594,0.059 0.1857,0 0.2652,-0.062 0.083,-0.065 0.083,-0.2063 v -0.7987 q 0,0 0.018,0 0.018,0 0.035,0 0.021,0 0.038,0 0.018,0 0.024,0 0.035,0 0.056,0.01 0.021,0 0.026,0.021 0.01,0.018 0.01,0.059 v 0.6749 q 0,0.1474 -0.044,0.2446 -0.044,0.094 -0.1651,0.1415 -0.1208,0.044 -0.3477,0.044 -0.2064,0 -0.3272,-0.038 -0.1179,-0.038 -0.168,-0.1297 -0.05,-0.091 -0.05,-0.2475 v -0.6897 q 0,-0.05 0.015,-0.068 0.018,-0.018 0.065,-0.018 0.032,0 0.062,0 0.032,0 0.065,0 z"
           id="path19000"
           style="font-size:48.9726px;line-height:1.25;font-family:Genos;-inkscape-font-specification:'Genos, Normal';text-align:center;text-anchor:middle;fill:#ffffff;fill-opacity:1;stroke:none;stroke-width:0.0265019" />
        <path
           d="m -2722.9681,2762.0495 q -0.1739,0 -0.283,-0.018 -0.109,-0.018 -0.168,-0.059 -0.056,-0.044 -0.08,-0.1149 -0.021,-0.071 -0.021,-0.1739 0,-0.1503 0.035,-0.2299 0.035,-0.08 0.1238,-0.109 0.088,-0.03 0.2357,-0.03 0.074,0 0.1592,0.01 0.088,0 0.168,0.01 0.082,0 0.1415,0.01 0.062,0.01 0.082,0.015 0,-0.1355 -0.024,-0.2151 -0.024,-0.08 -0.074,-0.1179 -0.047,-0.038 -0.1208,-0.05 -0.071,-0.012 -0.1651,-0.012 -0.097,0 -0.1974,0.01 -0.097,0.01 -0.1798,0.024 -0.082,0.015 -0.1267,0.041 v -0.044 q 0,-0.062 0.035,-0.085 0.038,-0.027 0.086,-0.035 0.056,-0.015 0.1621,-0.023 0.1091,-0.01 0.2269,-0.01 0.1503,0 0.2564,0.015 0.1091,0.015 0.1798,0.065 0.071,0.047 0.1061,0.1444 0.035,0.097 0.035,0.2652 v 0.6071 q -0.018,0.059 -0.1562,0.089 -0.1385,0.026 -0.4391,0.026 z m 0,-0.1001 q 0.1355,0 0.2151,-0.01 0.082,-0.01 0.1238,-0.024 0.044,-0.015 0.056,-0.038 v -0.4392 q -0.027,-0.01 -0.1002,-0.018 -0.071,-0.01 -0.1503,-0.015 -0.08,-0.01 -0.1356,-0.01 -0.1267,0 -0.2063,0.015 -0.077,0.015 -0.112,0.074 -0.032,0.059 -0.032,0.1827 0,0.097 0.024,0.1591 0.023,0.062 0.094,0.091 0.074,0.03 0.224,0.03 z"
           id="path19002"
           style="font-size:48.9726px;line-height:1.25;font-family:Genos;-inkscape-font-specification:'Genos, Normal';text-align:center;text-anchor:middle;fill:#ffffff;fill-opacity:1;stroke:none;stroke-width:0.0265019" />
        <path
           d="m -2721.8039,2762.0399 q -0.1476,0 -0.2118,-0.064 -0.064,-0.067 -0.064,-0.2375 v -1.2256 q 0,-0.039 0.01,-0.061 0.01,-0.026 0.026,-0.035 0.023,-0.01 0.061,-0.01 h 0.1347 q 0,0 0,0.042 0,0.038 0,0.096 v 1.1582 q 0,0.122 0.026,0.1765 0.029,0.055 0.109,0.055 0.023,0 0.061,-0.01 0.038,-0.01 0.051,-0.01 v 0.099 q -0.019,0 -0.064,0.013 -0.042,0.01 -0.1284,0.01 z"
           id="path19004"
           style="font-size:48.9726px;line-height:1.25;font-family:Genos;-inkscape-font-specification:'Genos, Normal';text-align:center;text-anchor:middle;fill:#ffffff;fill-opacity:1;stroke:none;stroke-width:0.0265019" />
        <text
           xml:space="preserve"
           style="font-style:normal;font-variant:normal;font-weight:normal;font-stretch:normal;font-size:0.944494px;line-height:1.25;font-family:Genos;-inkscape-font-specification:'Genos, Normal';font-variant-ligatures:normal;font-variant-caps:normal;font-variant-numeric:normal;font-variant-east-asian:normal;text-align:center;text-anchor:middle;fill:#ffffff;fill-opacity:1;stroke:none;stroke-width:0.0265019"
           x="-2723.9058"
           y="2760.6245"
           id="text19008"><tspan
             sodipodi:role="line"
             id="tspan19006"
             style="font-style:normal;font-variant:normal;font-weight:normal;font-stretch:normal;font-size:0.944494px;font-family:Genos;-inkscape-font-specification:'Genos, Normal';font-variant-ligatures:normal;font-variant-caps:normal;font-variant-numeric:normal;font-variant-east-asian:normal;fill:#ffffff;fill-opacity:1;stroke:none;stroke-width:0.0265019"
             x="-2723.9058"
             y="2760.6245">.COM.AR</tspan></text>
        <path
           id="path19010"
           style="font-variation-settings:'wght' 900;fill:#ffffff;fill-opacity:1;stroke:none;stroke-width:0.537399;stroke-linecap:round;stroke-linejoin:miter;stroke-dasharray:none;paint-order:stroke fill markers;stop-color:#000000"
           d="m -2725.7686,2760.853 v 0.4278 h -0.4278 v 0.335 h 0.4278 v 0.4278 h 0.335 v -0.4278 h 0.4279 v -0.335 h -0.4279 v -0.4278 z" />
      </g>
      <g
         id="g19026"
         transform="matrix(0.19960959,0,0,0.19960959,207.62141,35.08247)"
         style="fill:#ffffff;fill-opacity:1">
        <path
           style="color:#000000;fill:#ffffff;fill-opacity:1;stroke-linejoin:round;-inkscape-stroke:none;paint-order:fill markers stroke"
           d="m -452.32936,512.34262 a 0.12651265,0.12651265 0 0 0 -0.127,0.12696 v -0.0723 l -3.625,2.09179 -0.1621,-0.0937 a 0.12651265,0.12651265 0 0 0 -0.062,-0.0156 0.12651265,0.12651265 0 0 0 -0.064,0.0156 l -0.1621,0.0937 -3.6875,-2.1289 a 0.12651265,0.12651265 0 0 0 -0.127,0 l -3.97661,2.29492 a 0.12651265,0.12651265 0 0 0 -0.062,0.11133 v 4.25781 l -3.914,2.25977 a 0.12651265,0.12651265 0 0 0 -0.062,0.10937 v 4.18164 a 0.12651265,0.12651265 0 0 0 0.062,0.10938 l 3.9765,2.29492 7.95511,4.5918 a 0.12651265,0.12651265 0 0 0 0.125,0 l 7.9531,-4.5918 3.9766,-2.29492 a 0.12651265,0.12651265 0 0 0 0.064,-0.10938 v -4.18164 a 0.12651265,0.12651265 0 0 0 -0.064,-0.10937 l -3.9121,-2.25977 v -4.25781 a 0.12651265,0.12651265 0 0 0 -0.064,-0.11133 l -3.9121,-2.25781 v 0.0723 a 0.12651265,0.12651265 0 0 0 -0.1269,-0.12696 z m 0,0.27149 0.1074,0.0625 a 0.12651265,0.12651265 0 0 0 -0.057,0.0996 v 4.11133 l -3.7247,-2.15039 z m -7.9531,0.002 3.6738,2.12109 -3.7246,2.15039 v -4.11133 a 0.12651265,0.12651265 0 0 0 -0.057,-0.0996 z m 8.2558,0.3789 3.3711,1.94532 v 4.25781 a 0.12651265,0.12651265 0 0 0 0.062,0.10937 l 3.9141,2.25977 v 3.48242 l -3.7871,-2.18554 a 0.12651265,0.12651265 0 0 0 -0.1895,0.10937 v 4.37305 l -3.3711,-1.94532 v -4.51957 a 0.12651265,0.12651265 0 0 0 -0.062,-0.10938 l -3.9141,-2.25976 v -3.48243 l 3.7872,2.18555 a 0.12651265,0.12651265 0 0 0 0.1894,-0.10937 z m -8.5605,0.002 v 4.10938 a 0.12651265,0.12651265 0 0 0 0.1914,0.10937 l 3.7851,-2.18359 v 3.48047 l -3.9121,2.25977 a 0.12651265,0.12651265 0 0 0 -0.064,0.10937 v 4.51953 l -3.36921,1.94531 v -4.37304 a 0.12651265,0.12651265 0 0 0 -0.1894,-0.10938 l -3.7871,2.18555 v -3.48242 l 3.914,-2.25977 a 0.12651265,0.12651265 0 0 0 0.062,-0.10937 v -4.25782 z m 4.2812,1.6543 0.1074,0.0625 a 0.12651265,0.12651265 0 0 0 -0.057,0.0977 v 3.77344 a 0.12651265,0.12651265 0 0 0 0.062,0.10937 l 3.9141,2.25977 v 4.51953 a 0.12651265,0.12651265 0 0 0 0.062,0.10938 l 3.623,2.09179 a 0.12651265,0.12651265 0 0 0 0.1895,-0.10937 v -4.37305 l 3.7871,2.18555 a 0.12651265,0.12651265 0 0 0 0.1132,0 v 0.12305 l -3.914,2.25976 -7.8887,4.55469 -7.89061,-4.55469 -3.9121,-2.25976 v -0.12305 a 0.12651265,0.12651265 0 0 0 0.1133,0 l 3.7865,-2.18369 v 4.37109 a 0.12651265,0.12651265 0 0 0 0.1914,0.10938 l 3.62311,-2.0918 a 0.12651265,0.12651265 0 0 0 0.062,-0.10938 v -4.51953 l 3.9145,-2.25976 a 0.12651265,0.12651265 0 0 0 0.062,-0.10938 v -3.77344 a 0.12651265,0.12651265 0 0 0 -0.057,-0.0977 z"
           id="path19014" />
        <path
           style="font-variation-settings:'wght' 500;fill:#ffffff;fill-opacity:1;stroke:none;stroke-width:0.352999;stroke-dasharray:none;stroke-opacity:1;paint-order:fill markers stroke;stop-color:#000000"
           d="m -464.08257,514.86793 3.62301,-2.09186 v 4.33048 l 3.9765,-2.29495 v 3.77341 l -3.9765,2.29651 v 4.59196 l -3.62301,2.09187 v -4.59197 l -3.9765,2.29495 v -3.77342 l 3.9765,-2.29701 z"
           id="path19016" />
        <path
           style="font-variation-settings:'wght' 500;fill:#ffffff;fill-opacity:1;stroke:none;stroke-width:0.352999;stroke-dasharray:none;stroke-opacity:1;paint-order:fill markers stroke;stop-color:#000000"
           d="m -448.52966,514.86793 -3.623,-2.09186 v 4.33048 l -3.9765,-2.29495 v 3.77341 l 3.9765,2.29651 v 4.59196 l 3.623,2.09187 v -4.59197 l 3.9765,2.29495 v -3.77342 l -3.9765,-2.29701 z"
           id="path19018" />
        <path
           id="path19020"
           style="fill:#ffffff;fill-opacity:1;stroke:none;stroke-width:0.0529163;stroke-linecap:butt;stroke-linejoin:miter;stroke-dasharray:none;stroke-opacity:1;paint-order:fill markers stroke;stop-color:#000000"
           d="m -456.30676,507.01817 a 17.232282,17.232282 0 0 0 -13.79591,6.92552 l 2.3065,1.3306 a 14.580536,14.580536 0 0 1 11.48941,-5.60494 14.580536,14.580536 0 0 1 11.4895,5.60745 l 2.317,-1.33611 a 17.232282,17.232282 0 0 0 -13.8065,-6.92252 z" />
        <path
           id="path19022"
           style="fill:#ffffff;fill-opacity:1;stroke:none;stroke-width:0.0529163;stroke-linecap:butt;stroke-linejoin:miter;stroke-dasharray:none;stroke-opacity:1;paint-order:fill markers stroke;stop-color:#000000"
           d="m -456.30676,503.04191 a 21.208013,21.208123 0 0 0 -17.26021,8.90288 l 2.3251,1.34112 a 18.557311,18.663312 0 0 1 14.93511,-7.59332 18.557311,18.663312 0 0 1 14.9377,7.59332 l 2.325,-1.33861 a 21.208013,21.208123 0 0 0 -17.2627,-8.90539 z" />
        <path
           id="path19024"
           style="fill:#ffffff;fill-opacity:1;stroke:none;stroke-width:0.0529163;stroke-linecap:butt;stroke-linejoin:miter;stroke-dasharray:none;stroke-opacity:1;paint-order:fill markers stroke;stop-color:#000000"
           d="m -456.30676,499.06515 a 25.184649,25.184508 0 0 0 -20.72391,10.88124 l 2.3095,1.3331 a 22.533559,22.533669 0 0 1 18.41441,-9.56317 22.533559,22.533669 0 0 1 18.415,9.56568 l 2.3115,-1.33561 a 25.184649,25.184508 0 0 0 -20.7265,-10.88124 z" />
      </g>
    </g>
  </g>
</svg>
