<?xml version="1.0" encoding="UTF-8" standalone="no"?>
<!-- Created with Inkscape (http://www.inkscape.org/) -->

<svg
   width="53.019985mm"
   height="53.020004mm"
   viewBox="0 0 53.019985 53.020004"
   version="1.1"
   id="svg7225"
   inkscape:version="1.2.2 (1:1.2.2+202212051552+b0a8486541)"
   sodipodi:docname="DR SVGs.svg"
   xmlns:inkscape="http://www.inkscape.org/namespaces/inkscape"
   xmlns:sodipodi="http://sodipodi.sourceforge.net/DTD/sodipodi-0.dtd"
   xmlns="http://www.w3.org/2000/svg"
   xmlns:svg="http://www.w3.org/2000/svg">
  <sodipodi:namedview
     id="namedview7227"
     pagecolor="#ffffff"
     bordercolor="#999999"
     borderopacity="1"
     inkscape:showpageshadow="0"
     inkscape:pageopacity="0"
     inkscape:pagecheckerboard="0"
     inkscape:deskcolor="#d1d1d1"
     inkscape:document-units="mm"
     showgrid="false"
     inkscape:zoom="0.48430627"
     inkscape:cx="287.00847"
     inkscape:cy="418.12385"
     inkscape:window-width="1360"
     inkscape:window-height="752"
     inkscape:window-x="0"
     inkscape:window-y="16"
     inkscape:window-maximized="1"
     inkscape:current-layer="layer1" />
  <defs
     id="defs7222" />
  <g
     inkscape:label="Capa 1"
     inkscape:groupmode="layer"
     id="layer1"
     transform="translate(314.2909,-159.08131)">
    <g
       id="g62943"
       transform="matrix(5.0097795,0,0,5.0097795,-842.25851,-448.48372)"
       style="stroke-width:0.19961">
      <rect
         style="fill:#000000;fill-opacity:1;stroke:none;stroke-width:0.0105626;stroke-linecap:butt;stroke-linejoin:miter;stroke-dasharray:none;stroke-opacity:1;paint-order:fill markers stroke;stop-color:#000000"
         id="rect62881"
         width="10.5833"
         height="10.5833"
         x="105.38739"
         y="121.2758" />
      <g
         id="g62917"
         transform="translate(2853.3184,-2630.3907)"
         style="stroke-width:0.19961">
        <path
           id="path62883"
           style="opacity:1;fill:#bd4455;fill-opacity:1;stroke:none;stroke-width:0.0105626;stroke-linecap:butt;stroke-linejoin:miter;stroke-dasharray:none;stroke-opacity:1;paint-order:fill markers stroke;stop-color:#000000"
           d="m -2742.6397,2754.0479 a 3.4397285,3.4397285 0 0 0 -2.7538,1.3824 l 0.4604,0.2656 a 2.9104147,2.9104147 0 0 1 2.2934,-1.1188 2.9104147,2.9104147 0 0 1 2.2934,1.1193 l 0.4625,-0.2667 a 3.4397285,3.4397285 0 0 0 -2.7559,-1.3818 z" />
        <path
           id="path62885"
           style="opacity:1;fill:#00c191;fill-opacity:1;stroke:none;stroke-width:0.0105626;stroke-linecap:butt;stroke-linejoin:miter;stroke-dasharray:none;stroke-opacity:1;paint-order:fill markers stroke;stop-color:#000000"
           d="m -2742.6397,2753.2542 a 4.2333226,4.2333446 0 0 0 -3.4453,1.7771 l 0.4641,0.2677 a 3.704217,3.7253759 0 0 1 2.9812,-1.5157 3.704217,3.7253759 0 0 1 2.9817,1.5157 l 0.4641,-0.2672 a 4.2333226,4.2333446 0 0 0 -3.4458,-1.7776 z" />
        <g
           id="g62899"
           style="stroke-width:0.19961">
          <path
             style="opacity:1;fill:#bd4455;fill-opacity:1;stroke:none;stroke-width:0.0105626;stroke-linecap:butt;stroke-linejoin:miter;stroke-dasharray:none;stroke-opacity:1;paint-order:fill markers stroke;stop-color:#000000"
             d="m -2744.2271,2755.5944 0.7937,-0.4583 v 0.8647 l 0.7938,-0.4583 v 0.8348 l -0.7938,0.4582 v 0.9165 l -0.7937,0.4583 v -0.9165 l -0.7938,0.4582 v -0.8347 l 0.7938,-0.4583 z"
             id="path62887" />
          <path
             style="opacity:1;fill:#00c191;fill-opacity:1;stroke:none;stroke-width:0.0105626;stroke-linecap:butt;stroke-linejoin:miter;stroke-dasharray:none;stroke-opacity:1;paint-order:fill markers stroke;stop-color:#000000"
             d="m -2742.6846,2755.5684 -0.7488,-0.4323 v 0.8647 z"
             id="path62889" />
          <path
             style="opacity:1;fill:#00c191;fill-opacity:1;stroke:none;stroke-width:0.0105626;stroke-linecap:butt;stroke-linejoin:miter;stroke-dasharray:none;stroke-opacity:1;paint-order:fill markers stroke;stop-color:#000000"
             d="m -2743.4334,2756.8355 0.7938,0.4583 v -0.9165 z"
             id="path62891" />
          <path
             style="opacity:1;fill:#00c191;fill-opacity:1;stroke:none;stroke-width:0.0105626;stroke-linecap:butt;stroke-linejoin:miter;stroke-dasharray:none;stroke-opacity:1;paint-order:fill markers stroke;stop-color:#000000"
             d="m -2742.6396,2757.2938 v 0.9165 l -0.7938,-0.4583 v -0.9165 z"
             id="path62893" />
          <path
             style="opacity:1;fill:#00c191;fill-opacity:1;stroke:none;stroke-width:0.0105626;stroke-linecap:butt;stroke-linejoin:miter;stroke-dasharray:none;stroke-opacity:1;paint-order:fill markers stroke;stop-color:#000000"
             d="m -2744.2271,2758.2103 0.7937,-0.4583 0.7938,0.4583 v 0.9165 z"
             id="path62895" />
          <path
             style="opacity:1;fill:#00c191;fill-opacity:1;stroke:none;stroke-width:0.0105626;stroke-linecap:butt;stroke-linejoin:miter;stroke-dasharray:none;stroke-opacity:1;paint-order:fill markers stroke;stop-color:#000000"
             d="m -2745.0209,2757.752 0.7938,0.4583 v -0.9165 z"
             id="path62897" />
        </g>
        <path
           id="path62901"
           style="opacity:1;fill:#00c191;fill-opacity:1;stroke:none;stroke-width:0.0105626;stroke-linecap:butt;stroke-linejoin:miter;stroke-dasharray:none;stroke-opacity:1;paint-order:fill markers stroke;stop-color:#000000"
           d="m -2742.6397,2752.4604 a 5.0270972,5.0270691 0 0 0 -4.1367,2.172 l 0.461,0.2661 a 4.4979143,4.4979362 0 0 1 3.6757,-1.9089 4.4979143,4.4979362 0 0 1 3.6758,1.9094 l 0.4614,-0.2666 a 5.0270972,5.0270691 0 0 0 -4.1372,-2.172 z" />
        <g
           id="g62915"
           transform="matrix(-1,0,0,1,-5485.2792,0)"
           style="stroke-width:0.19961">
          <path
             style="opacity:1;fill:#00c191;fill-opacity:1;stroke:none;stroke-width:0.0105626;stroke-linecap:butt;stroke-linejoin:miter;stroke-dasharray:none;stroke-opacity:1;paint-order:fill markers stroke;stop-color:#000000"
             d="m -2744.2271,2755.5944 0.7937,-0.4583 v 0.8647 l 0.7938,-0.4583 v 0.8348 l -0.7938,0.4582 v 0.9165 l -0.7937,0.4583 v -0.9165 l -0.7938,0.4582 v -0.8347 l 0.7938,-0.4583 z"
             id="path62903" />
          <path
             style="opacity:1;fill:#bd4455;fill-opacity:1;stroke:none;stroke-width:0.0105626;stroke-linecap:butt;stroke-linejoin:miter;stroke-dasharray:none;stroke-opacity:1;paint-order:fill markers stroke;stop-color:#000000"
             d="m -2742.6846,2755.5684 -0.7488,-0.4323 v 0.8647 z"
             id="path62905" />
          <path
             style="opacity:1;fill:#bd4455;fill-opacity:1;stroke:none;stroke-width:0.0105626;stroke-linecap:butt;stroke-linejoin:miter;stroke-dasharray:none;stroke-opacity:1;paint-order:fill markers stroke;stop-color:#000000"
             d="m -2743.4334,2756.8355 0.7938,0.4583 v -0.9165 z"
             id="path62907" />
          <path
             style="opacity:1;fill:#bd4455;fill-opacity:1;stroke:none;stroke-width:0.0105626;stroke-linecap:butt;stroke-linejoin:miter;stroke-dasharray:none;stroke-opacity:1;paint-order:fill markers stroke;stop-color:#000000"
             d="m -2742.6396,2757.2938 v 0.9165 l -0.7938,-0.4583 v -0.9165 z"
             id="path62909" />
          <path
             style="opacity:1;fill:#bd4455;fill-opacity:1;stroke:none;stroke-width:0.0105626;stroke-linecap:butt;stroke-linejoin:miter;stroke-dasharray:none;stroke-opacity:1;paint-order:fill markers stroke;stop-color:#000000"
             d="m -2744.2271,2758.2103 0.7937,-0.4583 0.7938,0.4583 v 0.9165 z"
             id="path62911" />
          <path
             style="opacity:1;fill:#bd4455;fill-opacity:1;stroke:none;stroke-width:0.0105626;stroke-linecap:butt;stroke-linejoin:miter;stroke-dasharray:none;stroke-opacity:1;paint-order:fill markers stroke;stop-color:#000000"
             d="m -2745.0209,2757.752 0.7938,0.4583 v -0.9165 z"
             id="path62913" />
        </g>
      </g>
      <g
         id="g62941"
         transform="matrix(0.76413783,0,0,0.76413783,2194.2563,-1980.3097)"
         style="fill:#4d4d4d;fill-opacity:1;stroke-width:0.261221">
        <path
           d="m -2730.2723,2761.302 q 0,0.2631 -0.058,0.4139 -0.058,0.1476 -0.1669,0.2149 -0.1058,0.067 -0.263,0.087 -0.154,0.016 -0.3497,0.016 -0.093,0 -0.1958,0 -0.099,0 -0.1989,0 -0.096,0 -0.1764,0 -0.077,0 -0.1252,0 v -1.2705 q 0,-0.1027 0.026,-0.1508 0.029,-0.048 0.1444,-0.055 0.051,0 0.1347,0 0.083,0 0.1765,0 0.096,0 0.1861,0 0.09,0 0.1508,0 0.1764,0.01 0.308,0.029 0.1347,0.023 0.2246,0.096 0.093,0.074 0.1379,0.2246 0.045,0.1476 0.045,0.4042 z m -1.2865,0.5871 q 0.022,0 0.08,0 0.061,0 0.1315,0 0.071,0 0.1348,0 0.067,0 0.1027,0 0.1636,0 0.2759,-0.022 0.1123,-0.023 0.1796,-0.083 0.071,-0.064 0.1,-0.1797 0.032,-0.1187 0.032,-0.308 0,-0.2567 -0.055,-0.3882 -0.051,-0.1348 -0.1764,-0.1829 -0.1219,-0.048 -0.3433,-0.048 -0.045,0 -0.1283,0 -0.08,0 -0.1605,0 -0.08,0 -0.1251,0.01 -0.023,0.013 -0.035,0.035 -0.013,0.019 -0.013,0.08 z"
           id="path62919"
           style="font-size:48.9726px;line-height:1.25;font-family:Genos;-inkscape-font-specification:'Genos, Normal';text-align:center;text-anchor:middle;fill:#00c191;fill-opacity:1;stroke:none;stroke-width:0.0691139" />
        <path
           d="m -2729.8143,2762.0289 h -0.1296 q -0.038,0 -0.059,-0.018 -0.018,-0.021 -0.018,-0.074 v -1.0257 q 0.065,-0.021 0.1769,-0.044 0.1149,-0.024 0.2829,-0.024 0.1591,0 0.2505,0.024 0.094,0.021 0.1356,0.059 0.044,0.038 0.056,0.094 0.015,0.053 0.015,0.1208 h -0.1974 v -0.041 q 0,-0.068 -0.044,-0.097 -0.041,-0.032 -0.097,-0.038 -0.056,-0.01 -0.112,-0.01 -0.086,0 -0.1533,0.015 -0.065,0.015 -0.1031,0.038 z"
           id="path62921"
           style="font-size:48.9726px;line-height:1.25;font-family:Genos;-inkscape-font-specification:'Genos, Normal';text-align:center;text-anchor:middle;fill:#00c191;fill-opacity:1;stroke:none;stroke-width:0.0691139" />
        <path
           d="m -2728.4675,2762.0271 q -0.1219,0 -0.1861,-0.058 -0.064,-0.061 -0.1058,-0.1828 l -0.4171,-1.2352 h 0.2631 l 0.3561,1.1325 q 0.026,0.077 0.067,0.1059 0.042,0.029 0.087,0.029 h 0.048 l 0.4203,-1.2673 h 0.1893 l -0.5197,1.4758 z"
           id="path62923"
           style="font-size:48.9726px;line-height:1.25;font-family:Genos;-inkscape-font-specification:'Genos, Normal';text-align:center;text-anchor:middle;fill:#bd4455;fill-opacity:1;stroke:none;stroke-width:0.0691139" />
        <path
           d="m -2727.3852,2762.0407 q -0.1385,0 -0.1857,-0.074 -0.047,-0.074 -0.047,-0.2151 v -0.8989 h 0.2063 v 0.8871 q 0,0.1208 0.026,0.1621 0.026,0.041 0.094,0.041 0.024,0 0.059,-0.01 0.035,-0.01 0.044,-0.01 v 0.091 q -0.01,0 -0.035,0.01 -0.024,0 -0.065,0.01 -0.038,0.01 -0.097,0.01 z m -0.1267,-1.3587 q -0.05,0 -0.08,-0.015 -0.03,-0.015 -0.03,-0.062 0,-0.047 0.027,-0.062 0.029,-0.015 0.079,-0.015 0.056,0 0.083,0.015 0.026,0.015 0.024,0.062 0,0.047 -0.027,0.062 -0.026,0.015 -0.077,0.015 z"
           id="path62925"
           style="font-size:48.9726px;line-height:1.25;font-family:Genos;-inkscape-font-specification:'Genos, Normal';text-align:center;text-anchor:middle;fill:#bd4455;fill-opacity:1;stroke:none;stroke-width:0.0691139" />
        <path
           d="m -2726.8514,2762.0289 h -0.1297 q -0.038,0 -0.059,-0.018 -0.018,-0.021 -0.018,-0.074 v -1.0257 q 0.065,-0.021 0.1768,-0.044 0.1149,-0.024 0.2829,-0.024 0.1592,0 0.2506,0.024 0.094,0.021 0.1355,0.059 0.044,0.038 0.056,0.094 0.015,0.053 0.015,0.1208 h -0.1974 v -0.041 q 0,-0.068 -0.044,-0.097 -0.041,-0.032 -0.097,-0.038 -0.056,-0.01 -0.112,-0.01 -0.085,0 -0.1532,0.015 -0.065,0.015 -0.1032,0.038 z"
           id="path62927"
           style="font-size:48.9726px;line-height:1.25;font-family:Genos;-inkscape-font-specification:'Genos, Normal';text-align:center;text-anchor:middle;fill:#bd4455;fill-opacity:1;stroke:none;stroke-width:0.0691139" />
        <path
           d="m -2724.625,2760.853 v 0.7987 q 0,0.1473 0.082,0.2092 0.086,0.059 0.2594,0.059 0.1857,0 0.2652,-0.062 0.083,-0.065 0.083,-0.2063 v -0.7987 q 0,0 0.018,0 0.018,0 0.035,0 0.021,0 0.038,0 0.018,0 0.024,0 0.035,0 0.056,0.01 0.021,0 0.026,0.021 0.01,0.018 0.01,0.059 v 0.6749 q 0,0.1474 -0.044,0.2446 -0.044,0.094 -0.1651,0.1415 -0.1208,0.044 -0.3477,0.044 -0.2064,0 -0.3272,-0.038 -0.1179,-0.038 -0.168,-0.1297 -0.05,-0.091 -0.05,-0.2475 v -0.6897 q 0,-0.05 0.015,-0.068 0.018,-0.018 0.065,-0.018 0.032,0 0.062,0 0.032,0 0.065,0 z"
           id="path62929"
           style="font-size:48.9726px;line-height:1.25;font-family:Genos;-inkscape-font-specification:'Genos, Normal';text-align:center;text-anchor:middle;fill:#bd4455;fill-opacity:1;stroke:none;stroke-width:0.0691139" />
        <path
           d="m -2722.9681,2762.0495 q -0.1739,0 -0.283,-0.018 -0.109,-0.018 -0.168,-0.059 -0.056,-0.044 -0.08,-0.1149 -0.021,-0.071 -0.021,-0.1739 0,-0.1503 0.035,-0.2299 0.035,-0.08 0.1238,-0.109 0.088,-0.03 0.2357,-0.03 0.074,0 0.1592,0.01 0.088,0 0.168,0.01 0.082,0 0.1415,0.01 0.062,0.01 0.082,0.015 0,-0.1355 -0.024,-0.2151 -0.024,-0.08 -0.074,-0.1179 -0.047,-0.038 -0.1208,-0.05 -0.071,-0.012 -0.1651,-0.012 -0.097,0 -0.1974,0.01 -0.097,0.01 -0.1798,0.024 -0.082,0.015 -0.1267,0.041 v -0.044 q 0,-0.062 0.035,-0.085 0.038,-0.027 0.086,-0.035 0.056,-0.015 0.1621,-0.023 0.1091,-0.01 0.2269,-0.01 0.1503,0 0.2564,0.015 0.1091,0.015 0.1798,0.065 0.071,0.047 0.1061,0.1444 0.035,0.097 0.035,0.2652 v 0.6071 q -0.018,0.059 -0.1562,0.089 -0.1385,0.026 -0.4391,0.026 z m 0,-0.1001 q 0.1355,0 0.2151,-0.01 0.082,-0.01 0.1238,-0.024 0.044,-0.015 0.056,-0.038 v -0.4392 q -0.027,-0.01 -0.1002,-0.018 -0.071,-0.01 -0.1503,-0.015 -0.08,-0.01 -0.1356,-0.01 -0.1267,0 -0.2063,0.015 -0.077,0.015 -0.112,0.074 -0.032,0.059 -0.032,0.1827 0,0.097 0.024,0.1591 0.023,0.062 0.094,0.091 0.074,0.03 0.224,0.03 z"
           id="path62931"
           style="font-size:48.9726px;line-height:1.25;font-family:Genos;-inkscape-font-specification:'Genos, Normal';text-align:center;text-anchor:middle;fill:#bd4455;fill-opacity:1;stroke:none;stroke-width:0.0691139" />
        <path
           d="m -2721.8039,2762.0399 q -0.1476,0 -0.2118,-0.064 -0.064,-0.067 -0.064,-0.2375 v -1.2256 q 0,-0.039 0.01,-0.061 0.01,-0.026 0.026,-0.035 0.023,-0.01 0.061,-0.01 h 0.1347 q 0,0 0,0.042 0,0.038 0,0.096 v 1.1582 q 0,0.122 0.026,0.1765 0.029,0.055 0.109,0.055 0.023,0 0.061,-0.01 0.038,-0.01 0.051,-0.01 v 0.099 q -0.019,0 -0.064,0.013 -0.042,0.01 -0.1284,0.01 z"
           id="path62933"
           style="font-size:48.9726px;line-height:1.25;font-family:Genos;-inkscape-font-specification:'Genos, Normal';text-align:center;text-anchor:middle;fill:#bd4455;fill-opacity:1;stroke:none;stroke-width:0.0691139" />
        <text
           xml:space="preserve"
           style="font-style:normal;font-variant:normal;font-weight:normal;font-stretch:normal;font-size:0.944494px;line-height:1.25;font-family:Genos;-inkscape-font-specification:'Genos, Normal';font-variant-ligatures:normal;font-variant-caps:normal;font-variant-numeric:normal;font-variant-east-asian:normal;text-align:center;text-anchor:middle;fill:#bd4455;fill-opacity:1;stroke:none;stroke-width:0.0691139"
           x="-2723.9058"
           y="2760.6245"
           id="text62937"><tspan
             sodipodi:role="line"
             id="tspan62935"
             style="font-style:normal;font-variant:normal;font-weight:normal;font-stretch:normal;font-size:0.944494px;font-family:Genos;-inkscape-font-specification:'Genos, Normal';font-variant-ligatures:normal;font-variant-caps:normal;font-variant-numeric:normal;font-variant-east-asian:normal;fill:#bd4455;fill-opacity:1;stroke:none;stroke-width:0.0691139"
             x="-2723.9058"
             y="2760.6245">.COM.AR</tspan></text>
        <path
           id="path62939"
           style="font-variation-settings:'wght' 900;fill:#00c191;fill-opacity:1;stroke:none;stroke-width:1.40147;stroke-linecap:round;stroke-linejoin:miter;stroke-dasharray:none;paint-order:stroke fill markers;stop-color:#000000"
           d="m -2725.7686,2760.853 v 0.4278 h -0.4278 v 0.335 h 0.4278 v 0.4278 h 0.335 v -0.4278 h 0.4279 v -0.335 h -0.4279 v -0.4278 z" />
      </g>
    </g>
  </g>
</svg>
